<?xml version="1.0" encoding="UTF-8" standalone="no"?>
<!DOCTYPE svg PUBLIC "-//W3C//DTD SVG 1.1//EN"
 "http://www.w3.org/Graphics/SVG/1.1/DTD/svg11.dtd">
<!-- Generated by graphviz version 2.38.0 (20140413.2041)
 -->
<!-- Title: G Pages: 1 -->
<svg width="387pt" height="582pt"
 viewBox="0.00 0.00 387.00 582.00" xmlns="http://www.w3.org/2000/svg" xmlns:xlink="http://www.w3.org/1999/xlink">
<g id="graph0" class="graph" transform="scale(1 1) rotate(0) translate(4 578)">
<title>G</title>
<polygon fill="white" stroke="none" points="-4,4 -4,-578 383,-578 383,4 -4,4"/>
<g id="clust1" class="cluster"><title>cluster_Global</title>
<path fill="none" stroke="gray" d="M20,-44C20,-44 359,-44 359,-44 365,-44 371,-50 371,-56 371,-56 371,-554 371,-554 371,-560 365,-566 359,-566 359,-566 20,-566 20,-566 14,-566 8,-560 8,-554 8,-554 8,-56 8,-56 8,-50 14,-44 20,-44"/>
<text text-anchor="middle" x="189.5" y="-553.2" font-family="Times,serif" font-size="11.00" fill="gray">Global</text>
</g>
<g id="clust2" class="cluster"><title>cluster_\Kelunik</title>
<path fill="none" stroke="gray" d="M28,-52C28,-52 351,-52 351,-52 357,-52 363,-58 363,-64 363,-64 363,-526 363,-526 363,-532 357,-538 351,-538 351,-538 28,-538 28,-538 22,-538 16,-532 16,-526 16,-526 16,-64 16,-64 16,-58 22,-52 28,-52"/>
<text text-anchor="middle" x="189.5" y="-525.2" font-family="Times,serif" font-size="11.00" fill="gray">Kelunik</text>
</g>
<g id="clust3" class="cluster"><title>cluster_\Kelunik\Acme</title>
<path fill="none" stroke="gray" d="M36,-60C36,-60 343,-60 343,-60 349,-60 355,-66 355,-72 355,-72 355,-498 355,-498 355,-504 349,-510 343,-510 343,-510 36,-510 36,-510 30,-510 24,-504 24,-498 24,-498 24,-72 24,-72 24,-66 30,-60 36,-60"/>
<text text-anchor="middle" x="189.5" y="-497.2" font-family="Times,serif" font-size="11.00" fill="gray">Acme</text>
</g>
<!-- \\Kelunik\\Acme\\KeyPair -->
<g id="node1" class="node"><title>\\Kelunik\\Acme\\KeyPair</title>
<polygon fill="none" stroke="black" points="306.5,-482 242.5,-482 242.5,-446 306.5,-446 306.5,-482"/>
<text text-anchor="middle" x="274.5" y="-461.2" font-family="Courier,monospace" font-size="11.00">KeyPair</text>
</g>
<!-- \\Kelunik\\Acme\\AcmeClient -->
<g id="node2" class="node"><title>\\Kelunik\\Acme\\AcmeClient</title>
<polygon fill="none" stroke="black" points="316.5,-428 232.5,-428 232.5,-392 316.5,-392 316.5,-428"/>
<text text-anchor="middle" x="274.5" y="-407.2" font-family="Courier,monospace" font-size="11.00">AcmeClient</text>
</g>
<!-- \\Kelunik\\Acme\\AcmeService -->
<g id="node3" class="node"><title>\\Kelunik\\Acme\\AcmeService</title>
<polygon fill="none" stroke="black" points="320,-374 229,-374 229,-338 320,-338 320,-374"/>
<text text-anchor="middle" x="274.5" y="-353.2" font-family="Courier,monospace" font-size="11.00">AcmeService</text>
</g>
<!-- \\Kelunik\\Acme\\Registration -->
<g id="node4" class="node"><title>\\Kelunik\\Acme\\Registration</title>
<polygon fill="none" stroke="black" points="323.5,-320 225.5,-320 225.5,-284 323.5,-284 323.5,-320"/>
<text text-anchor="middle" x="274.5" y="-299.2" font-family="Courier,monospace" font-size="11.00">Registration</text>
</g>
<!-- \\Kelunik\\Acme\\AcmeResource -->
<g id="node5" class="node"><title>\\Kelunik\\Acme\\AcmeResource</title>
<polygon fill="none" stroke="black" points="323.5,-266 225.5,-266 225.5,-230 323.5,-230 323.5,-266"/>
<text text-anchor="middle" x="274.5" y="-245.2" font-family="Courier,monospace" font-size="11.00">AcmeResource</text>
</g>
<!-- \\Kelunik\\Acme\\AcmeError -->
<g id="node6" class="node"><title>\\Kelunik\\Acme\\AcmeError</title>
<polygon fill="none" stroke="black" points="313,-212 236,-212 236,-176 313,-176 313,-212"/>
<text text-anchor="middle" x="274.5" y="-191.2" font-family="Courier,monospace" font-size="11.00">AcmeError</text>
</g>
<!-- \\Kelunik\\Acme\\AcmeException -->
<g id="node7" class="node"><title>\\Kelunik\\Acme\\AcmeException</title>
<polygon fill="none" stroke="black" points="326.5,-104 222.5,-104 222.5,-68 326.5,-68 326.5,-104"/>
<text text-anchor="middle" x="274.5" y="-83.2" font-family="Courier,monospace" font-size="11.00">AcmeException</text>
</g>
<!-- \\Exception -->
<g id="node10" class="node"><title>\\Exception</title>
<ellipse fill="none" stroke="black" cx="81" cy="-18" rx="48.9926" ry="18"/>
<text text-anchor="middle" x="81" y="-14.3" font-family="Times,serif" font-size="14.00" fill="gray">\Exception</text>
</g>
<!-- \\Kelunik\\Acme\\AcmeException&#45;&gt;\\Exception -->
<g id="edge1" class="edge"><title>\\Kelunik\\Acme\\AcmeException&#45;&gt;\\Exception</title>
<path fill="none" stroke="black" d="M222.684,-67.9558C192.75,-57.3264 155.238,-44.0063 126.479,-33.7941"/>
<polygon fill="none" stroke="black" points="127.293,-30.3691 116.698,-30.3211 124.951,-36.9656 127.293,-30.3691"/>
</g>
<!-- \\Kelunik\\Acme\\OpenSSLKeyGenerator -->
<g id="node8" class="node"><title>\\Kelunik\\Acme\\OpenSSLKeyGenerator</title>
<polygon fill="none" stroke="black" points="347,-158 202,-158 202,-122 347,-122 347,-158"/>
<text text-anchor="middle" x="274.5" y="-137.2" font-family="Courier,monospace" font-size="11.00">OpenSSLKeyGenerator</text>
</g>
<!-- \\Kelunik\\Acme\\KeyGenerator -->
<g id="node9" class="node"><title>\\Kelunik\\Acme\\KeyGenerator</title>
<polygon fill="none" stroke="black" points="130,-158 32,-158 32,-122 130,-122 130,-158"/>
<text text-anchor="middle" x="81" y="-137.2" font-family="Courier,monospace" font-size="11.00">KeyGenerator</text>
</g>
<!-- \\Kelunik\\Acme\\OpenSSLKeyGenerator&#45;&gt;\\Kelunik\\Acme\\KeyGenerator -->
<g id="edge2" class="edge"><title>\\Kelunik\\Acme\\OpenSSLKeyGenerator&#45;&gt;\\Kelunik\\Acme\\KeyGenerator</title>
<path fill="none" stroke="black" stroke-dasharray="1,5" d="M201.92,-140C181.659,-140 159.852,-140 140.463,-140"/>
<polygon fill="none" stroke="black" points="140.266,-136.5 130.266,-140 140.266,-143.5 140.266,-136.5"/>
</g>
</g>
</svg>
